# Blender v2.79 (sub 0) OBJ File: 'Target.blend'
# www.blender.org
o Cube.002_Cube.003
v -0.646450 -0.467317 0.528574
v -0.141767 0.615827 0.067688
v -0.646450 -0.469565 0.437901
v -0.141767 0.579883 -0.022984
v -0.555663 -0.466731 0.546255
v -0.050980 0.577812 0.085369
v -0.555663 -0.468979 0.455582
v -0.050980 0.558873 -0.016562
v -0.050000 -0.473086 -0.078003
v -0.050000 0.717310 0.100951
v -0.050000 -0.458220 -0.176891
v -0.050000 0.732176 0.002062
v 0.050000 -0.473086 -0.078003
v 0.050000 0.717310 0.100951
v 0.050000 -0.458220 -0.176891
v 0.050000 0.732176 0.002062
v 0.094231 1.393193 0.008930
v 0.094231 1.379655 0.179994
v 0.414507 1.162323 -0.009340
v 0.414507 1.148786 0.161724
v 0.422650 0.768602 -0.040499
v 0.422650 0.755065 0.130565
v 0.112529 0.526444 -0.059663
v 0.112529 0.512906 0.111401
v -0.293772 0.593193 -0.054380
v -0.293772 0.579656 0.116684
v -0.464587 0.941213 -0.026838
v -0.464587 0.927675 0.144226
v -0.291009 1.317386 0.002931
v -0.291008 1.303848 0.173995
v 0.063221 1.279165 -0.009744
v 0.063221 1.276286 0.026633
v 0.283515 1.106662 -0.023396
v 0.283515 1.103783 0.012982
v 0.304757 0.824409 -0.045733
v 0.304757 0.821530 -0.009355
v 0.078504 0.654120 -0.059209
v 0.078504 0.651241 -0.022832
v -0.219444 0.708810 -0.054881
v -0.219444 0.705931 -0.018504
v -0.326519 0.962431 -0.034810
v -0.326519 0.959552 0.001567
v -0.204680 1.205210 -0.015597
v -0.204680 1.202331 0.020780
v -0.076206 1.143932 -0.027175
v -0.076206 1.142180 -0.005036
v 0.093872 1.132226 -0.028101
v 0.093872 1.130474 -0.005963
v 0.201419 0.997399 -0.038771
v 0.201419 0.995647 -0.016633
v 0.145969 0.834529 -0.051661
v 0.145969 0.832777 -0.029522
v -0.022769 0.760453 -0.057523
v -0.022769 0.758701 -0.035384
v -0.163695 0.851599 -0.050310
v -0.163695 0.849847 -0.028171
v -0.185676 1.015350 -0.037351
v -0.185676 1.013598 -0.015212
v 0.555663 -0.466731 0.546255
v 0.050980 0.577812 0.085369
v 0.555663 -0.468979 0.455582
v 0.050980 0.535640 -0.005304
v 0.646450 -0.467317 0.528574
v 0.141767 0.615827 0.067688
v 0.646450 -0.469566 0.437901
v 0.141767 0.573655 -0.022985
v -0.022878 1.049065 -0.041939
v -0.022878 1.048223 -0.031310
v 0.057894 1.043444 -0.042384
v 0.057894 1.042603 -0.031754
v 0.096183 0.978708 -0.047507
v 0.096183 0.977867 -0.036877
v 0.069559 0.880514 -0.053696
v 0.069559 0.879673 -0.043066
v -0.011459 0.839968 -0.056510
v -0.011458 0.839127 -0.045881
v -0.090542 0.885377 -0.053047
v -0.090542 0.884536 -0.042417
v -0.089676 0.987327 -0.046825
v -0.089676 0.986486 -0.036195
vt 0.252045 0.088756
vt 0.246778 0.051251
vt 0.290536 0.058109
vt 0.290536 0.092817
vt 0.248694 0.127424
vt 0.246778 0.092817
vt 0.288361 0.097172
vt 0.288361 0.130232
vt 0.348598 0.010999
vt 0.348598 0.044185
vt 0.301992 0.044720
vt 0.309577 0.010729
vt 0.291914 0.010729
vt 0.291914 0.045042
vt 0.252204 0.013786
vt 0.246778 0.167601
vt 0.246778 0.139957
vt 0.283179 0.130232
vt 0.283179 0.157877
vt 0.059821 0.261315
vt 0.059821 0.010729
vt 0.089514 0.029183
vt 0.089514 0.279769
vt 0.154534 0.026096
vt 0.154534 0.277621
vt 0.119292 0.262254
vt 0.119292 0.010729
vt 0.089514 0.280578
vt 0.089514 0.029052
vt 0.024473 0.276813
vt 0.024473 0.026226
vt 0.054167 0.295266
vt 0.735514 0.160001
vt 0.787891 0.160001
vt 0.779745 0.326005
vt 0.727367 0.326005
vt 0.727141 0.407860
vt 0.674763 0.407860
vt 0.901721 0.407237
vt 0.849344 0.407237
vt 0.904178 0.338786
vt 0.956555 0.338786
vt 0.923923 0.173198
vt 0.976300 0.173198
vt 0.888819 0.040336
vt 0.941196 0.040336
vt 0.796509 0.326355
vt 0.787891 0.160591
vt 0.825483 0.031082
vt 0.877860 0.031082
vt 0.697556 0.031082
vt 0.749934 0.031082
vt 0.619737 0.340335
vt 0.599523 0.175005
vt 0.634249 0.041454
vt 0.862465 0.747949
vt 0.885622 0.746617
vt 0.885622 0.888926
vt 0.862465 0.890257
vt 0.818059 0.971172
vt 0.794902 0.972504
vt 0.958839 0.648814
vt 0.981925 0.646753
vt 0.912032 0.715651
vt 0.888947 0.717711
vt 0.908708 0.865753
vt 0.885622 0.867813
vt 0.981925 0.969496
vt 0.958839 0.971556
vt 0.981925 0.646753
vt 0.986838 0.663186
vt 0.986838 0.726687
vt 0.981925 0.710255
vt 0.790294 0.648085
vt 0.813450 0.646753
vt 0.706522 0.915983
vt 0.661088 0.769591
vt 0.704272 0.656622
vt 0.372101 0.675524
vt 0.348996 0.676164
vt 0.305867 0.546600
vt 0.328972 0.545960
vt 0.334506 0.412595
vt 0.357610 0.411955
vt 0.421705 0.386714
vt 0.444809 0.386074
vt 0.600579 0.386074
vt 0.623721 0.386168
vt 0.548340 0.481740
vt 0.525197 0.481645
vt 0.554835 0.622321
vt 0.531693 0.622226
vt 0.623721 0.703630
vt 0.600579 0.703536
vt 0.459585 0.703288
vt 0.436481 0.703928
vt 0.525197 0.479596
vt 0.525197 0.620238
vt 0.200690 0.036147
vt 0.200690 0.334854
vt 0.154534 0.334090
vt 0.162134 0.040357
vt 0.301992 0.035529
vt 0.301992 0.329135
vt 0.296984 0.308753
vt 0.298910 0.010729
vt 0.208193 0.311008
vt 0.200690 0.012028
vt 0.246778 0.010729
vt 0.246778 0.314808
vt 0.294845 0.333743
vt 0.291914 0.031057
vt 0.296984 0.010729
vt 0.296984 0.308960
vt 0.155496 0.014939
vt 0.194052 0.010729
vt 0.063724 0.926612
vt 0.045710 0.926795
vt 0.015991 0.818822
vt 0.034006 0.818639
vt 0.047516 0.724225
vt 0.065530 0.724042
vt 0.128073 0.689953
vt 0.146087 0.689770
vt 0.278357 0.689770
vt 0.296376 0.690314
vt 0.231421 0.765208
vt 0.213403 0.764664
vt 0.227165 0.898816
vt 0.209146 0.898272
vt 0.296376 0.970154
vt 0.278357 0.969611
vt 0.137083 0.969474
vt 0.119069 0.969656
vt 0.209146 0.765798
vt 0.209146 0.899414
vn -0.9142 0.3966 -0.0835
vn 0.0699 -0.4368 -0.8968
vn 0.9061 -0.4205 0.0463
vn -0.0863 0.4302 0.8986
vn 0.0016 -0.9997 0.0248
vn -1.0000 -0.0000 0.0000
vn 0.0000 0.1487 -0.9889
vn 1.0000 0.0000 -0.0000
vn -0.0000 -0.1487 0.9889
vn 0.0000 -0.9889 -0.1487
vn 0.5860 0.8078 0.0639
vn 0.9998 0.0205 0.0016
vn 0.6166 -0.7848 -0.0621
vn -0.1626 -0.9836 -0.0778
vn -0.8982 -0.4381 -0.0347
vn 0.0000 -0.0789 0.9969
vn -0.9085 0.4166 0.0330
vn -0.1937 0.9780 0.0774
vn -0.0000 0.0789 -0.9969
vn 0.6177 0.7839 0.0620
vn 0.9972 0.0746 0.0059
vn 0.6026 -0.7956 -0.0630
vn -0.1811 -0.9804 -0.0776
vn -0.9217 -0.3867 -0.0306
vn -0.8943 0.4460 0.0353
vn -0.2669 0.9607 0.0760
vn 0.0689 0.9945 0.0787
vn 0.7827 0.6205 0.0491
vn 0.9469 -0.3204 -0.0254
vn 0.4030 -0.9123 -0.0722
vn -0.5443 -0.8363 -0.0662
vn -0.9912 -0.1322 -0.0105
vn -0.7624 0.6451 0.0510
vn -0.9096 -0.4036 0.0989
vn -0.0826 -0.4426 -0.8929
vn 0.9147 0.3925 -0.0961
vn 0.0863 0.4302 0.8986
vn -0.0016 -0.9997 0.0248
vn 0.0696 0.9945 0.0787
vn 0.8614 0.5063 0.0401
vn 0.9653 -0.2604 -0.0206
vn 0.4484 -0.8911 -0.0705
vn -0.4990 -0.8639 -0.0684
vn -1.0000 0.0084 0.0007
vn -0.6799 0.7310 0.0579
vn -0.0011 0.0682 -0.9977
s off
f 1/1/1 2/2/1 4/3/1 3/4/1
f 3/5/2 4/6/2 8/7/2 7/8/2
f 7/9/3 8/10/3 6/11/3 5/12/3
f 5/13/4 6/14/4 2/2/4 1/15/4
f 3/16/5 7/17/5 5/18/5 1/19/5
f 9/20/6 10/21/6 12/22/6 11/23/6
f 11/24/7 12/25/7 16/26/7 15/27/7
f 15/27/8 16/26/8 14/28/8 13/29/8
f 13/30/9 14/31/9 10/21/9 9/20/9
f 11/23/10 15/32/10 13/30/10 9/20/10
f 17/33/11 18/34/11 20/35/11 19/36/11
f 19/36/12 20/35/12 22/37/12 21/38/12
f 21/39/13 22/40/13 24/41/13 23/42/13
f 23/42/14 24/41/14 26/43/14 25/44/14
f 25/44/15 26/43/15 28/45/15 27/46/15
f 20/47/16 18/48/16 30/49/16 28/45/16 26/43/16 24/41/16 22/40/16
f 27/46/17 28/45/17 30/49/17 29/50/17
f 29/51/18 30/52/18 18/34/18 17/33/18
f 17/33/19 19/36/19 21/38/19 23/53/19 25/54/19 27/55/19 29/51/19
f 31/56/20 32/57/20 34/58/20 33/59/20
f 33/59/21 34/58/21 36/60/21 35/61/21
f 35/62/22 36/63/22 38/64/22 37/65/22
f 37/65/23 38/64/23 40/66/23 39/67/23
f 39/67/24 40/66/24 42/68/24 41/69/24
f 41/70/25 42/71/25 44/72/25 43/73/25
f 43/74/26 44/75/26 32/57/26 31/56/26
f 31/56/19 33/59/19 35/61/19 37/76/19 39/77/19 41/78/19 43/74/19
f 45/79/27 46/80/27 48/81/27 47/82/27
f 47/82/28 48/81/28 50/83/28 49/84/28
f 49/84/29 50/83/29 52/85/29 51/86/29
f 51/87/30 52/88/30 54/89/30 53/90/30
f 53/90/31 54/89/31 56/91/31 55/92/31
f 55/92/32 56/91/32 58/93/32 57/94/32
f 57/95/33 58/96/33 46/80/33 45/79/33
f 45/79/19 47/82/19 49/84/19 51/86/19 53/97/19 55/98/19 57/95/19
f 59/99/34 60/100/34 62/101/34 61/102/34
f 61/103/35 62/104/35 66/105/35 65/106/35
f 65/107/36 66/108/36 64/109/36 63/110/36
f 63/111/37 64/112/37 60/113/37 59/114/37
f 61/102/38 65/115/38 63/116/38 59/99/38
f 67/117/39 68/118/39 70/119/39 69/120/39
f 69/120/40 70/119/40 72/121/40 71/122/40
f 71/122/41 72/121/41 74/123/41 73/124/41
f 73/125/42 74/126/42 76/127/42 75/128/42
f 75/128/43 76/127/43 78/129/43 77/130/43
f 77/130/44 78/129/44 80/131/44 79/132/44
f 79/133/45 80/134/45 68/118/45 67/117/45
f 67/117/46 69/120/46 71/122/46 73/124/46 75/135/46 77/136/46 79/133/46
